# xmcd
#
# Track frame offsets:
#	182
#	9685
#	20522
#	32452
#	43045
#	55325
#	65557
#	75412
#	85432
#	98147
#	108232
#	121745
#	132450
#	140122
#	152472
#	161247
#
# Disc length: 2333 seconds
#
# Revision: 1
# Processed by: cddbd v1.5.2PL0 Copyright (c) Steve Scherf et al.
# Submitted via: EZCDAudioConverter 9.1.1.1
#
DISCID=d0091b10
DTITLE=Various Artist - Gentlemen Of Country And Western Vol. 1
DYEAR=2000
DGENRE=Country
TTITLE0=George Jones - Am I That Easy To Forget
TTITLE1=Don Williams - Always Something There To Remind Me
TTITLE2=Johnny Cash - Ring Of Fire
TTITLE3=Kenny Rogers - She Even Woke Me Up To Say Goodbye
TTITLE4=Charlie Rich - My Heart Cries For You
TTITLE5=Glen Campbell - Walk Right In
TTITLE6=Hank Locklin - Please Help Me Im Falling
TTITLE7=Dave Dudley - Oh Lonesome Me
TTITLE8=Willie Nelson - Any Old Arms Wont Do
TTITLE9=Floyd Tillman - Slippin Around
TTITLE10=Jimmy Dean - Big Bad John
TTITLE11=Glen Campbell - Redwings
TTITLE12=Roger Miller - Do Waka Do
TTITLE13=Johnny Cash - I Walk The Line
TTITLE14=Willie Nelson - Why Are You Picking On Me
TTITLE15=Carl Perkins - Every Road
EXTD=
EXTT0=
EXTT1=
EXTT2=
EXTT3=
EXTT4=
EXTT5=
EXTT6=
EXTT7=
EXTT8=
EXTT9=
EXTT10=
EXTT11=
EXTT12=
EXTT13=
EXTT14=
EXTT15=
PLAYORDER=
